<?xml version="1.0" encoding="UTF-8"?>
<svg id="b" xmlns="http://www.w3.org/2000/svg" viewBox="0 0 410 333.62">
    <g id="c">
        <path
            d="m410,200h-63.36c-7.19,0-13.04-5.85-13.04-13.04h0v-53.23h0v-61.31h0s0,0,0,0l-114.23,70.6c-1,.62-2.08.94-3.21.94-2.97,0-6.17-2.36-6.17-6.17h0V52.22h0V0S210,0,210,0h0s-5,0-5,0h-47.2s0,0,0,0h-.01S0,0,0,0v10h157.8c23.26,0,42.19,18.93,42.2,42.2v85.6h0v2.89s0,.83,0,.83c0,8.44-4.29,16.13-11.47,20.57l-66.81,41.29,5.26,8.51,63.64-39.33h0c1-.62,2.08-.94,3.21-.94,1.58,0,3.15.64,4.31,1.75.85.81,1.86,2.23,1.86,4.4v9.2h0v13.04h0v10h0v13.03s0,0,0,0h0s0,0,0,0h0s0,0,0,0v76.4c0,13.33-10.85,24.17-24.18,24.18h-5.01v10h5s29.18,0,29.18,0h5s0,0,0,0v-18.74s0-15.44,0-15.44h0v-76.41c0-7.18,5.85-13.02,13.03-13.02h87.55c7.18,0,13.03,5.85,13.03,13.03v110.57h10v-110.57h0c0-3.48,1.36-6.76,3.82-9.22,2.46-2.46,5.73-3.82,9.21-3.82h63.36v-10Zm-200.01-13.03v-9.19h0v-3.72c0-8.44,4.29-16.13,11.47-20.57l3.17-1.96h0s62.07-38.36,62.07-38.36h0s0,0,0,0h0s0,0,0,0h0s0,0,0,0h0s0,0,0,0h0s0,0,0,0c3.92-2.42,8.18-3.65,12.64-3.65,11.66,0,24.24,9.26,24.24,24.22v53.24c0,7.19-5.85,13.03-13.04,13.03h0s-87.54,0-87.54,0h0c-7.18,0-13.03-5.84-13.04-13.03Z" />
        <path
            d="m328.61,223.04h0c0-9.96-8.08-18.04-18.04-18.04h0s0,0,0,0c9.96,0,18.04-8.08,18.04-18.04h0s0,0,0,0c0,9.96,8.07,18.04,18.04,18.04h0s0,0,0,0c-9.96,0-18.04,8.07-18.04,18.04h0Z"
            style="fill:#d57f2e;" />
        <path
            d="m204.99,223.04h0c0-9.96,8.08-18.04,18.04-18.04h0s0,0,0,0c-9.96,0-18.04-8.07-18.04-18.03h0s0,36.07,0,36.07Z"
            style="fill:#d57f2e;" />
        <path
            d="m284.08,108.92h0c19.44-12.02,44.52,1.97,44.52,24.82h0s0-52.34,0-52.34l-44.52,27.52Z"
            style="fill:#d72127;" />
        <path d="m204.99,299.43h0c0,16.12-13.07,29.18-29.18,29.18h0,29.18v-29.18Z"
            style="fill:#2e3b56;" />
        <path
            d="m222,147.28h0c-7.43,4.59-17.01-.75-17.01-9.48h0s0,3.72,0,3.72c0,10.11-5.24,19.51-13.84,24.83l-3.17,1.96h0c7.43-4.59,17.01.75,17.01,9.48h0s0-3.72,0-3.72c0-10.11,5.24-19.51,13.84-24.82l3.17-1.96Z"
            style="fill:#2e3b56;" />
        <path d="m157.79,5c26.06,0,47.2,21.14,47.2,47.2,0,0,0,.01,0,.01V5h-47.22s.01,0,.01,0Z"
            style="fill:#2e3b56;" />
    </g>
</svg>