<?xml version="1.0" encoding="UTF-8"?>
<svg id="b" xmlns="http://www.w3.org/2000/svg" viewBox="0 0 410 333.62">
    <symbol id="logo">
        <line x1="204.99" y1="205" x2="405" y2="205"
            style="fill:none; stroke:#000; stroke-linecap:square; stroke-miterlimit:10; stroke-width:10px;" />
        <polyline points="328.61 328.61 328.61 81.4 128.6 205"
            style="fill:none; stroke:#000; stroke-linecap:square; stroke-miterlimit:10; stroke-width:10px;" />
        <polyline points="175.81 328.62 204.99 328.62 205 5 5 5"
            style="fill:none; stroke:#000; stroke-linecap:square; stroke-miterlimit:10; stroke-width:10px;" />
        <path
            d="m326.11,223.04c0-8.57-6.97-15.54-15.54-15.54v-5c8.57,0,15.54-6.97,15.54-15.54h5c0,8.57,6.97,15.54,15.54,15.54v5c-8.57,0-15.54,6.97-15.54,15.54h-5Z"
            style="fill:#d57f2e;" />
        <path
            d="m328.61,186.97h0c0,9.96,8.07,18.04,18.04,18.04h0c-9.96,0-18.04,8.07-18.04,18.04,0-9.96-8.08-18.04-18.04-18.04,0,0,0,0,0,0h0c9.96,0,18.04-8.08,18.04-18.04h0m0,36.07h0s0,0,0,0m-5-36.07c0,7.19-5.85,13.04-13.04,13.04v10c7.19,0,13.04,5.85,13.04,13.04h10c0-3.48,1.36-6.76,3.82-9.22,2.46-2.46,5.74-3.82,9.22-3.82v-5s0-5,0-5c-7.19,0-13.04-5.85-13.04-13.04h-10Z" />
        <path
            d="m202.49,223.04v-36.07h5c0,8.57,6.97,15.54,15.54,15.54v5c-8.57,0-15.54,6.97-15.54,15.53h-5Z"
            style="fill:#d57f2e;" />
        <path
            d="m204.99,186.97h0c0,9.96,8.08,18.04,18.04,18.04-9.96,0-18.04,8.07-18.04,18.03v-36.07m0,36.07h0s0,0,0,0m-5-36.07v36.07s10,0,10,0c0-7.19,5.85-13.03,13.04-13.03v-10c-7.19,0-13.04-5.85-13.04-13.04h-10Zm0,36.07h0s10,0,10,0h-10Z" />
        <path
            d="m326.11,133.74c0-16.51-13.88-26.73-26.74-26.73-4.87,0-9.7,1.39-13.96,4.03l-2.63-4.25,48.34-29.87v56.82h-5Z"
            style="fill:#d72127;" />
        <path
            d="m328.61,81.4v52.34h0c0-17.1-14.03-29.23-29.24-29.23-5.12,0-10.38,1.38-15.27,4.4l44.52-27.51m-44.52,27.51h0s0,0,0,0c0,0,0,0,0,0m49.52-36.48l-7.63,4.71-44.52,27.51h0s1.35,2.18,1.35,2.18l1.21,1.96.07.12,2.62,4.26-2.21-3.59,2.21,3.58-1.96-3.17,1.96,3.17-1.54-2.51,1.55,2.5c3.92-2.42,8.18-3.65,12.64-3.65,11.66,0,24.24,9.26,24.24,24.23h10v-61.31h0Z" />
        <path d="m175.81,331.12v-5c14.71,0,26.68-11.97,26.68-26.68h5v31.68h-31.68Z"
            style="fill:#2e3b56;" />
        <path
            d="m204.99,299.43v29.18h-29.18c16.12,0,29.18-13.07,29.18-29.18m-29.18,29.18h0m24.18-29.18c0,13.33-10.85,24.18-24.18,24.18v10h34.18v-5s0-29.18,0-29.18h-10Z" />
        <path
            d="m202.5,177.79c0-5.35-4.5-8.67-8.67-8.67-1.6,0-3.12.44-4.52,1.31l-2.63-4.25,3.17-1.96c7.92-4.9,12.66-13.38,12.66-22.7v-3.72h5c0,2.39.94,4.6,2.63,6.22,1.62,1.55,3.82,2.44,6.04,2.44,1.6,0,3.12-.44,4.52-1.31l2.63,4.25-3.17,1.96c-7.92,4.9-12.66,13.38-12.66,22.7v3.72h-5Z"
            style="fill:#2e3b56;" />
        <path
            d="m205,137.8h0s0,0,0,0h0m0,0c0,6.53,5.36,11.16,11.17,11.16,1.96,0,3.97-.53,5.84-1.68h0l-3.17,1.96c-8.6,5.32-13.84,14.71-13.84,24.82v3.72s0,0,0,0c0-6.53-5.36-11.16-11.17-11.16-1.96,0-3.97.53-5.84,1.68l3.17-1.96c8.6-5.32,13.84-14.71,13.84-24.83v-3.72m5,0h-10s0,3.72,0,3.72c0,8.44-4.29,16.13-11.47,20.57l-3.17,1.96,5.26,8.51c1-.62,2.08-.94,3.21-.94,1.58,0,3.15.64,4.31,1.75.85.81,1.86,2.24,1.86,4.42h5s5,0,5,0v-3.72c0-8.44,4.29-16.13,11.47-20.57l3.17-1.96-5.26-8.51c-1,.62-2.08.94-3.21.94-2.97,0-6.17-2.36-6.17-6.17h0Z" />
        <path d="m202.5,52.2c0-24.65-20.06-44.7-44.7-44.7V2.5s49.7,0,49.7,0v49.7h-5s0,0,0,0Z"
            style="fill:#2e3b56;" />
        <path
            d="m205,5v47.22h0c0-26.08-21.14-47.22-47.2-47.22h47.2m-47.2,0h-.01.01M210,0h-52.2v10c23.26,0,42.2,18.93,42.2,42.21h10s0-47.21,0-47.21V0h0ZM157.79,0h-.01v10V0h.01Z" />
    </symbol>
</svg>