<?xml version="1.0" encoding="UTF-8"?><svg id="b" xmlns="http://www.w3.org/2000/svg" viewBox="0 0 512 512"><g id="c"><rect width="512" height="512" style="fill:#60909a;"/><path d="m320.86,239.4c-18.35,0-27.73,14.44-27.73,36.2,0,20.57,10.14,36,27.73,36,19.89,0,27.35-18.2,27.35-36-.01-18.59-9.38-36.2-27.35-36.2m-48.75-54h21.8v52.22h.39c5.93-9.89,18.35-16.02,29.45-16.02,31.16,0,46.27,24.53,46.27,54.4,0,27.48-13.38,53.4-42.64,53.4-13.38,0-27.73-3.35-34.23-16.81h-.38v14.05h-20.65v-141.24h0" style="fill:#fff; fill-rule:evenodd;"/><path d="m450.39,258.6c-1.72-12.46-10.51-19.19-22.56-19.19-11.29,0-27.15,6.14-27.15,37.19,0,17.01,7.26,35.02,26.2,35.02,12.62,0,21.41-8.71,23.52-23.35h21.8c-4.02,26.51-19.88,41.14-45.32,41.14-30.98,0-47.99-22.74-47.99-52.81s16.25-54.99,48.76-54.99c22.94,0,42.45,11.87,44.55,36.99h-21.8" style="fill:#fff; fill-rule:evenodd;"/><polyline points="195.9 326.34 32.41 326.34 108.75 185.41 272.24 185.41 195.9 326.34" style="fill:#fff; fill-rule:evenodd;"/></g></svg>