<svg xmlns="http://www.w3.org/2000/svg" viewBox="0 0 100 39.23">
    <path
        d="m49.94,36.98l-.18-9.07c-.08-4.32-3.68-8.43-8.03-9.2-1.27-.22-2.46-.13-3.51.22.5-.01,1.02.03,1.55.12,4.35.76,7.94,4.88,8.03,9.2l.18,9.07c.02.82.84,1.54,1.62,1.41l1.95-.34c-.78.13-1.6-.58-1.62-1.41Z"
        style="stroke:#000; stroke-linecap:round; stroke-linejoin:round;" />
    <path
        d="m29.46,33.39l-.18-9.07c-.08-4.32-3.68-8.43-8.03-9.2-1.27-.22-2.46-.13-3.51.22.5-.01,1.02.03,1.55.12,4.35.76,7.94,4.88,8.03,9.2l.18,9.07c.02.82.84,1.54,1.62,1.41l1.95-.34c-.78.13-1.6-.58-1.62-1.41Z"
        style="stroke:#000; stroke-linecap:round; stroke-linejoin:round;" />
    <path
        d="m8.96,28.64l-.15-7.91c-.05-2.39-1.17-4.81-3.12-6.67-.48-.52-1.07-.95-1.72-1.31-2.01-1.11-2.01-3.93,0-4.27l-1.95.34C0,9.16,0,11.97,2.01,13.08c.65.36,1.24.79,1.72,1.31,1.96,1.86,3.08,4.28,3.12,6.67l.15,7.91.02,1.17c.02.82.84,1.54,1.62,1.41l1.95-.34c-.78.13-1.6-.58-1.62-1.41l-.02-1.17Z"
        style="stroke:#000; stroke-linecap:round; stroke-linejoin:round;" />
    <path
        d="m50.06,2.26l.18,9.07c.08,4.32,3.68,8.43,8.03,9.2,1.27.22,2.46.13,3.51-.22-.5.01-1.02-.03-1.55-.12-4.35-.76-7.94-4.88-8.03-9.2l-.18-9.07c-.02-.82-.84-1.54-1.62-1.41l-1.95.34c.78-.13,1.6.58,1.62,1.41Z"
        style="stroke:#000; stroke-linecap:round; stroke-linejoin:round;" />
    <path
        d="m70.54,5.84l.18,9.07c.08,4.32,3.68,8.43,8.03,9.2,1.27.22,2.46.13,3.51-.22-.5.01-1.02-.03-1.55-.12-4.35-.76-7.94-4.88-8.03-9.2l-.18-9.07c-.02-.82-.84-1.54-1.62-1.41l-1.95.34c.78-.13,1.6.58,1.62,1.41Z"
        style="stroke:#000; stroke-linecap:round; stroke-linejoin:round;" />
    <path
        d="m91.04,10.59l.15,7.91c.05,2.39,1.17,4.81,3.12,6.67.48.52,1.07.95,1.72,1.31,2.01,1.11,2.01,3.93,0,4.27l1.95-.34c2.01-.34,2.01-3.16,0-4.27-.65-.36-1.24-.79-1.72-1.31-1.96-1.86-3.08-4.28-3.12-6.67l-.15-7.91-.02-1.17c-.02-.82-.84-1.54-1.62-1.41l-1.95.34c.78-.13,1.6.58,1.62,1.41l.02,1.17Z"
        style="stroke:#000; stroke-linecap:round; stroke-linejoin:round;" />

</svg>